<?xml version="1.0" standalone="no"?>
<!DOCTYPE svg PUBLIC "-//W3C//DTD SVG 20010904//EN"
 "http://www.w3.org/TR/2001/REC-SVG-20010904/DTD/svg10.dtd">
<svg version="1.0" xmlns="http://www.w3.org/2000/svg"
 width="1347.000000pt" height="1347.000000pt" viewBox="0 0 1347.000000 1347.000000"
 preserveAspectRatio="xMidYMid meet">
<metadata>
Created by potrace 1.14, written by Peter Selinger 2001-2017
</metadata>
<g transform="translate(0.000000,1347.000000) scale(0.100000,-0.100000)"
fill="#000000" stroke="none">
<path d="M6505 13244 c-957 -36 -1860 -266 -2708 -690 -480 -240 -929 -540
-1357 -908 -135 -116 -530 -511 -646 -646 -487 -567 -853 -1166 -1131 -1850
-80 -196 -214 -607 -266 -815 -142 -561 -200 -1033 -200 -1615 0 -733 101
-1362 328 -2045 180 -541 394 -993 698 -1470 258 -407 517 -726 886 -1096 298
-297 504 -474 811 -693 821 -589 1771 -980 2770 -1140 567 -92 1181 -105 1770
-40 855 94 1728 380 2485 812 380 217 713 452 1055 746 135 116 530 511 646
646 294 342 529 675 746 1055 385 674 648 1422 772 2195 92 567 105 1181 40
1770 -94 855 -380 1728 -812 2485 -217 380 -452 713 -746 1055 -116 135 -511
530 -646 646 -428 368 -877 668 -1357 908 -312 156 -532 246 -878 361 -524
174 -1020 273 -1575 314 -153 11 -549 20 -685 15z"/>
</g>
</svg>
